<svg xmlns="http://www.w3.org/2000/svg" xmlns:xlink="http://www.w3.org/1999/xlink" width="800" zoomAndPan="magnify" viewBox="0 0 600 749.999995" height="1000" preserveAspectRatio="xMidYMid meet" version="1.0"><defs><clipPath id="a7c0417162"><path d="M 81.113281 39 L 222 39 L 222 181 L 81.113281 181 Z M 81.113281 39 " clip-rule="nonzero"/></clipPath><clipPath id="52ebe9a5f9"><path d="M 349 38.460938 L 521 38.460938 L 521 258.210938 L 349 258.210938 Z M 349 38.460938 " clip-rule="nonzero"/></clipPath><clipPath id="4b6c94d5c0"><path d="M 66.601562 267 L 289.351562 267 L 289.351562 466 L 66.601562 466 Z M 66.601562 267 " clip-rule="nonzero"/></clipPath><clipPath id="e5f0c17766"><path d="M 349 495 L 546 495 L 546 698.671875 L 349 698.671875 Z M 349 495 " clip-rule="nonzero"/></clipPath><clipPath id="dc32129ea1"><path d="M 85.183594 500.449219 L 274.933594 500.449219 L 274.933594 690.199219 L 85.183594 690.199219 Z M 85.183594 500.449219 " clip-rule="nonzero"/></clipPath><clipPath id="03d7e033fe"><path d="M 348.085938 269.328125 L 521.335938 269.328125 L 521.335938 463.578125 L 348.085938 463.578125 Z M 348.085938 269.328125 " clip-rule="nonzero"/></clipPath></defs><path fill="#000000" d="M 227.082031 97.84375 L 227.089844 97.84375 L 227.089844 97.808594 Z M 227.082031 97.84375 " fill-opacity="1" fill-rule="nonzero"/><path fill="#f2bb30" d="M 246.734375 180.585938 C 260 180.585938 264.90625 171.332031 269.515625 157.460938 C 274.296875 143.175781 274.089844 129.429688 269.515625 111.132812 C 266.230469 97.953125 260.007812 88.007812 246.734375 88.007812 L 229.640625 88.007812 L 229.640625 108.242188 C 229.640625 123.9375 216.324219 137.164062 201.148438 137.164062 L 155.582031 137.164062 C 143.121094 137.164062 132.800781 147.824219 132.800781 160.328125 L 132.800781 203.757812 C 132.800781 216.125 143.550781 223.378906 155.582031 226.921875 C 169.996094 231.140625 183.867188 231.90625 201.140625 226.921875 C 212.613281 223.59375 223.921875 216.886719 223.921875 203.757812 L 223.921875 186.390625 L 178.398438 186.390625 L 178.398438 180.59375 L 246.734375 180.59375 Z M 203.996094 197.953125 C 208.726562 197.953125 212.574219 201.839844 212.574219 206.617188 C 212.574219 211.441406 208.734375 215.320312 203.996094 215.320312 C 199.300781 215.320312 195.421875 211.394531 195.421875 206.617188 C 195.46875 201.789062 199.316406 197.953125 203.996094 197.953125 Z M 203.996094 197.953125 " fill-opacity="1" fill-rule="nonzero"/><g clip-path="url(#a7c0417162)"><path fill="#35668f" d="M 109.335938 180.59375 L 124.988281 180.59375 L 124.988281 159.769531 C 124.988281 144.710938 138 131.4375 153.480469 131.4375 L 199.035156 131.4375 C 211.707031 131.4375 221.820312 120.992188 221.820312 108.273438 L 221.820312 64.8125 C 221.820312 52.445312 211.410156 43.175781 199.035156 41.097656 C 183.765625 38.574219 167.167969 38.71875 153.480469 41.144531 L 153.488281 41.136719 C 134.203125 44.546875 130.714844 51.664062 130.714844 64.84375 L 130.714844 82.210938 L 176.320312 82.210938 L 176.320312 88.015625 L 113.601562 88.015625 C 100.335938 88.015625 88.726562 95.996094 85.109375 111.140625 C 80.929688 128.507812 80.761719 139.335938 85.109375 157.46875 C 88.34375 170.949219 96.074219 180.59375 109.335938 180.59375 Z M 150.628906 70.609375 C 145.898438 70.609375 142.054688 66.722656 142.054688 61.945312 C 142.109375 57.121094 145.898438 53.242188 150.628906 53.242188 C 155.328125 53.242188 159.207031 57.160156 159.207031 61.945312 C 159.207031 66.730469 155.367188 70.609375 150.628906 70.609375 Z M 150.628906 70.609375 " fill-opacity="1" fill-rule="nonzero"/></g><g clip-path="url(#52ebe9a5f9)"><path fill="#000000" d="M 428.132812 38.460938 L 428.132812 98.121094 C 424.109375 96.488281 415.429688 96.292969 411.148438 96.292969 C 378.96875 96.292969 349.179688 111.394531 349.179688 154.121094 C 349.179688 205.242188 389.527344 211.949219 416.539062 211.949219 C 427.203125 211.949219 451.316406 210.898438 462.90625 207.542969 L 462.90625 38.460938 Z M 486.09375 38.460938 L 486.09375 73.160156 L 520.871094 73.160156 L 520.871094 38.460938 Z M 486.09375 96.292969 L 486.09375 196.925781 C 486.09375 214.460938 475.40625 232.710938 451.316406 243.191406 L 484.460938 258.167969 C 518.148438 246.601562 520.871094 208.492188 520.871094 196.925781 L 520.871094 96.292969 Z M 416.199219 125.792969 C 419.910156 125.792969 424.074219 126.472656 428.132812 127.398438 L 428.132812 181.792969 C 424.074219 182.71875 419.910156 183.417969 416.199219 183.417969 C 401.011719 183.417969 386.289062 178.640625 386.289062 154.121094 C 386.289062 129.601562 401.011719 125.792969 416.199219 125.792969 Z M 416.199219 125.792969 " fill-opacity="1" fill-rule="nonzero"/></g><g clip-path="url(#4b6c94d5c0)"><path fill="#00d8ff" d="M 249.59375 331.546875 C 247.292969 330.753906 244.902344 330.003906 242.4375 329.292969 C 242.847656 327.640625 243.21875 326.011719 243.550781 324.410156 C 248.960938 298.101562 245.425781 276.90625 233.328125 269.929688 C 221.730469 263.238281 202.765625 270.214844 183.609375 286.894531 C 181.769531 288.496094 179.917969 290.195312 178.078125 291.972656 C 176.847656 290.796875 175.621094 289.660156 174.398438 288.570312 C 154.320312 270.738281 134.199219 263.222656 122.117188 270.21875 C 110.53125 276.929688 107.101562 296.855469 111.980469 321.789062 C 112.449219 324.195312 113 326.65625 113.621094 329.15625 C 110.773438 329.964844 108.027344 330.824219 105.394531 331.742188 C 81.859375 339.953125 66.832031 352.820312 66.832031 366.167969 C 66.832031 379.945312 82.964844 393.777344 107.476562 402.160156 C 109.414062 402.820312 111.417969 403.445312 113.488281 404.035156 C 112.816406 406.738281 112.234375 409.386719 111.742188 411.976562 C 107.09375 436.476562 110.722656 455.929688 122.277344 462.59375 C 134.210938 469.484375 154.242188 462.402344 173.746094 445.347656 C 175.292969 444 176.835938 442.566406 178.382812 441.074219 C 180.398438 443.003906 182.402344 444.835938 184.390625 446.554688 C 203.285156 462.820312 221.945312 469.386719 233.484375 462.707031 C 245.40625 455.800781 249.289062 434.894531 244.253906 409.476562 C 243.871094 407.53125 243.417969 405.546875 242.925781 403.53125 C 244.332031 403.117188 245.710938 402.679688 247.058594 402.238281 C 272.542969 393.785156 289.117188 380.136719 289.117188 366.167969 C 289.117188 352.769531 273.601562 339.816406 249.59375 331.546875 Z M 244.070312 393.21875 C 242.855469 393.621094 241.605469 394.011719 240.335938 394.382812 C 237.523438 385.480469 233.730469 376 229.074219 366.210938 C 233.511719 356.652344 237.160156 347.300781 239.894531 338.445312 C 242.167969 339.105469 244.375 339.800781 246.5 340.53125 C 267.070312 347.617188 279.617188 358.09375 279.617188 366.167969 C 279.617188 374.757812 266.074219 385.921875 244.070312 393.21875 Z M 234.9375 411.316406 C 237.167969 422.558594 237.480469 432.722656 236.003906 440.671875 C 234.683594 447.816406 232.019531 452.574219 228.726562 454.480469 C 221.71875 458.535156 206.742188 453.261719 190.589844 439.351562 C 188.734375 437.753906 186.867188 436.050781 185 434.253906 C 191.261719 427.398438 197.519531 419.433594 203.632812 410.578125 C 214.375 409.632812 224.523438 408.066406 233.738281 405.941406 C 234.1875 407.773438 234.589844 409.5625 234.9375 411.316406 Z M 142.617188 453.773438 C 135.773438 456.199219 130.320312 456.269531 127.027344 454.367188 C 120.015625 450.316406 117.101562 434.695312 121.074219 413.75 C 121.53125 411.351562 122.074219 408.882812 122.699219 406.367188 C 131.804688 408.378906 141.882812 409.832031 152.652344 410.699219 C 158.804688 419.363281 165.25 427.320312 171.734375 434.289062 C 170.320312 435.660156 168.90625 436.964844 167.496094 438.1875 C 158.875 445.738281 150.234375 451.089844 142.617188 453.773438 Z M 110.554688 393.167969 C 99.714844 389.457031 90.761719 384.644531 84.628906 379.378906 C 79.113281 374.664062 76.332031 369.972656 76.332031 366.167969 C 76.332031 358.070312 88.398438 347.734375 108.523438 340.714844 C 110.964844 339.863281 113.523438 339.058594 116.175781 338.304688 C 118.957031 347.359375 122.605469 356.828125 127.007812 366.390625 C 122.546875 376.105469 118.847656 385.722656 116.039062 394.886719 C 114.148438 394.339844 112.316406 393.769531 110.554688 393.167969 Z M 121.300781 319.960938 C 117.125 298.601562 119.898438 282.488281 126.878906 278.441406 C 134.316406 274.136719 150.761719 280.277344 168.089844 295.675781 C 169.199219 296.660156 170.3125 297.691406 171.429688 298.753906 C 164.972656 305.695312 158.589844 313.59375 152.492188 322.203125 C 142.039062 323.171875 132.03125 324.730469 122.828125 326.816406 C 122.25 324.488281 121.738281 322.199219 121.300781 319.960938 Z M 217.179688 343.652344 C 214.984375 339.851562 212.726562 336.140625 210.425781 332.527344 C 217.519531 333.425781 224.308594 334.617188 230.691406 336.074219 C 228.78125 342.21875 226.390625 348.640625 223.578125 355.226562 C 221.566406 351.394531 219.429688 347.535156 217.179688 343.652344 Z M 178.078125 305.546875 C 182.464844 310.292969 186.851562 315.59375 191.164062 321.347656 C 186.816406 321.140625 182.414062 321.035156 177.976562 321.035156 C 173.582031 321.035156 169.214844 321.136719 164.890625 321.339844 C 169.207031 315.640625 173.632812 310.347656 178.078125 305.546875 Z M 138.730469 343.71875 C 136.53125 347.527344 134.4375 351.371094 132.453125 355.21875 C 129.691406 348.65625 127.324219 342.203125 125.390625 335.972656 C 131.734375 334.554688 138.496094 333.390625 145.542969 332.511719 C 143.210938 336.15625 140.933594 339.894531 138.730469 343.71875 Z M 145.746094 400.492188 C 138.464844 399.683594 131.601562 398.582031 125.261719 397.199219 C 127.222656 390.855469 129.640625 384.273438 132.464844 377.566406 C 134.453125 381.414062 136.554688 385.253906 138.765625 389.078125 L 138.769531 389.078125 C 141.019531 392.96875 143.351562 396.773438 145.746094 400.492188 Z M 178.339844 427.449219 C 173.84375 422.59375 169.351562 417.214844 164.96875 411.4375 C 169.222656 411.605469 173.566406 411.691406 177.976562 411.691406 C 182.507812 411.691406 186.988281 411.585938 191.390625 411.394531 C 187.066406 417.277344 182.691406 422.664062 178.339844 427.449219 Z M 223.667969 377.226562 C 226.636719 384.003906 229.144531 390.554688 231.132812 396.792969 C 224.691406 398.257812 217.726562 399.441406 210.398438 400.328125 C 212.707031 396.667969 214.984375 392.890625 217.222656 389.007812 C 219.488281 385.078125 221.632812 381.144531 223.667969 377.226562 Z M 208.992188 384.261719 C 205.519531 390.292969 201.949219 396.042969 198.328125 401.472656 C 191.738281 401.941406 184.921875 402.1875 177.976562 402.1875 C 171.054688 402.1875 164.324219 401.976562 157.847656 401.550781 C 154.078125 396.054688 150.4375 390.285156 146.984375 384.316406 C 143.542969 378.363281 140.371094 372.359375 137.5 366.390625 C 140.371094 360.414062 143.535156 354.402344 146.957031 348.464844 C 150.386719 342.507812 154 336.765625 157.734375 331.296875 C 164.34375 330.796875 171.125 330.535156 177.976562 330.535156 C 184.859375 330.535156 191.644531 330.796875 198.25 331.300781 C 201.933594 336.730469 205.519531 342.457031 208.964844 348.414062 C 212.449219 354.4375 215.652344 360.40625 218.542969 366.261719 C 215.660156 372.214844 212.464844 378.242188 208.992188 384.261719 Z M 228.582031 278.160156 C 236.03125 282.453125 238.921875 299.773438 234.242188 322.488281 C 233.945312 323.9375 233.609375 325.414062 233.242188 326.910156 C 224.023438 324.78125 214.011719 323.195312 203.53125 322.210938 C 197.417969 313.511719 191.085938 305.597656 184.730469 298.75 C 186.441406 297.105469 188.152344 295.535156 189.84375 294.058594 C 206.257812 279.769531 221.597656 274.125 228.582031 278.160156 Z M 177.976562 346.300781 C 188.933594 346.300781 197.824219 355.191406 197.824219 366.164062 C 197.824219 377.128906 188.933594 386.023438 177.976562 386.023438 C 167.015625 386.023438 158.125 377.128906 158.125 366.164062 C 158.125 355.191406 167.015625 346.300781 177.976562 346.300781 Z M 177.976562 346.300781 " fill-opacity="1" fill-rule="nonzero"/></g><g clip-path="url(#e5f0c17766)"><path fill="#000000" d="M 544.839844 617.359375 C 543.65625 613.773438 540.566406 611.277344 536.570312 610.675781 C 534.6875 610.398438 532.527344 610.515625 529.976562 611.046875 C 525.523438 611.964844 522.21875 612.316406 519.804688 612.386719 C 528.90625 596.980469 536.308594 579.417969 540.566406 562.882812 C 547.453125 536.148438 543.773438 523.972656 539.46875 518.460938 C 528.089844 503.882812 511.480469 496.046875 491.449219 495.808594 C 480.765625 495.675781 471.378906 497.792969 466.492188 499.3125 C 461.933594 498.507812 457.027344 498.058594 451.894531 497.976562 C 442.253906 497.820312 433.738281 499.925781 426.464844 504.253906 C 422.4375 502.890625 415.972656 500.964844 408.507812 499.738281 C 390.949219 496.847656 376.796875 499.097656 366.445312 506.429688 C 353.914062 515.304688 348.101562 530.730469 349.175781 552.269531 C 349.519531 559.109375 353.335938 579.917969 359.34375 599.648438 C 362.792969 610.992188 366.476562 620.410156 370.285156 627.648438 C 375.6875 637.910156 381.464844 643.953125 387.953125 646.128906 C 391.589844 647.335938 398.199219 648.191406 405.148438 642.390625 C 406.03125 643.453125 407.203125 644.515625 408.765625 645.503906 C 410.746094 646.757812 413.167969 647.785156 415.585938 648.386719 C 424.304688 650.574219 432.46875 650.027344 439.433594 646.96875 C 439.480469 648.207031 439.511719 649.394531 439.539062 650.421875 C 439.585938 652.085938 439.632812 653.710938 439.695312 655.238281 C 440.101562 665.539062 440.800781 673.554688 442.878906 679.167969 C 442.992188 679.472656 443.144531 679.945312 443.308594 680.4375 C 444.335938 683.613281 446.066406 688.929688 450.464844 693.09375 C 455.023438 697.402344 460.535156 698.71875 465.574219 698.71875 C 468.105469 698.71875 470.519531 698.386719 472.640625 697.933594 C 480.1875 696.3125 488.757812 693.839844 494.960938 684.984375 C 500.828125 676.617188 503.671875 664.015625 504.1875 644.148438 C 504.253906 643.585938 504.316406 643.050781 504.378906 642.535156 C 504.417969 642.195312 504.453125 641.84375 504.5 641.488281 L 505.882812 641.609375 L 506.238281 641.632812 C 513.925781 641.988281 523.324219 640.355469 529.097656 637.664062 C 533.664062 635.539062 548.285156 627.800781 544.839844 617.359375 " fill-opacity="1" fill-rule="nonzero"/></g><path fill="#336791" d="M 531.695312 619.386719 C 508.835938 624.117188 507.261719 616.355469 507.261719 616.355469 C 531.398438 580.441406 541.488281 534.863281 532.78125 523.714844 C 509.027344 493.28125 467.90625 507.671875 467.222656 508.046875 L 466.996094 508.085938 C 462.484375 507.144531 457.429688 506.585938 451.746094 506.492188 C 441.402344 506.320312 433.5625 509.210938 427.605469 513.738281 C 427.605469 513.738281 354.25 483.441406 357.660156 551.84375 C 358.386719 566.394531 378.464844 661.949219 402.410156 633.089844 C 411.164062 622.539062 419.621094 613.613281 419.621094 613.613281 C 423.824219 616.410156 428.847656 617.835938 434.121094 617.328125 L 434.53125 616.972656 C 434.40625 618.285156 434.460938 619.570312 434.699219 621.089844 C 428.527344 627.996094 430.339844 629.210938 418.007812 631.753906 C 405.527344 634.335938 412.859375 638.921875 417.644531 640.125 C 423.449219 641.582031 436.875 643.640625 445.945312 630.90625 L 445.582031 632.363281 C 447.996094 634.304688 449.695312 644.988281 449.410156 654.675781 C 449.125 664.363281 448.933594 671.011719 450.839844 676.207031 C 452.746094 681.402344 454.644531 693.085938 470.855469 689.601562 C 484.402344 686.695312 491.425781 679.152344 492.402344 666.566406 C 493.09375 657.625 494.664062 658.945312 494.761719 650.953125 L 496.015625 647.160156 C 497.46875 635.039062 496.246094 631.125 504.59375 632.941406 L 506.621094 633.125 C 512.765625 633.40625 520.804688 632.132812 525.523438 629.9375 C 535.6875 625.203125 541.710938 617.3125 531.6875 619.386719 L 531.695312 619.386719 " fill-opacity="1" fill-rule="nonzero"/><path fill="#ffffff" d="M 431.902344 558.351562 C 429.839844 558.0625 427.972656 558.328125 427.027344 559.046875 C 426.496094 559.449219 426.335938 559.917969 426.289062 560.238281 C 426.175781 561.089844 426.765625 562.03125 427.128906 562.515625 C 428.164062 563.890625 429.679688 564.835938 431.171875 565.042969 C 431.394531 565.074219 431.609375 565.089844 431.816406 565.089844 C 434.3125 565.089844 436.582031 563.140625 436.78125 561.703125 C 437.035156 559.902344 434.421875 558.703125 431.902344 558.351562 " fill-opacity="1" fill-rule="nonzero"/><path fill="#ffffff" d="M 500.144531 558.410156 C 499.941406 556.996094 497.445312 556.59375 495.0625 556.925781 C 492.695312 557.257812 490.386719 558.332031 490.582031 559.746094 C 490.734375 560.847656 492.71875 562.722656 495.0625 562.722656 C 495.261719 562.722656 495.460938 562.710938 495.660156 562.679688 C 497.222656 562.464844 498.375 561.46875 498.921875 560.894531 C 499.75 560.019531 500.226562 559.042969 500.144531 558.410156 " fill-opacity="1" fill-rule="nonzero"/><path fill="#ffffff" d="M 539.296875 618.851562 C 538.429688 616.210938 535.625 615.355469 530.957031 616.324219 C 517.121094 619.183594 512.164062 617.203125 510.535156 616 C 521.296875 599.570312 530.144531 579.710938 534.917969 561.175781 C 537.183594 552.398438 538.429688 544.246094 538.53125 537.601562 C 538.644531 530.308594 537.40625 524.949219 534.847656 521.675781 C 524.546875 508.476562 509.429688 501.398438 491.125 501.203125 C 478.542969 501.0625 467.914062 504.289062 465.851562 505.199219 C 461.515625 504.117188 456.78125 503.453125 451.632812 503.367188 C 442.183594 503.214844 434.023438 505.480469 427.265625 510.101562 C 424.324219 509.007812 416.738281 506.394531 407.457031 504.894531 C 391.414062 502.304688 378.664062 504.269531 369.566406 510.730469 C 358.710938 518.441406 353.699219 532.226562 354.671875 551.699219 C 354.996094 558.25 358.71875 578.40625 364.597656 597.707031 C 372.332031 623.113281 380.738281 637.496094 389.582031 640.457031 C 390.621094 640.800781 391.8125 641.039062 393.128906 641.039062 C 396.355469 641.039062 400.3125 639.585938 404.429688 634.621094 C 411.265625 626.375 417.648438 619.460938 420.003906 616.949219 C 423.480469 618.824219 427.304688 619.871094 431.207031 619.96875 C 431.214844 620.078125 431.222656 620.179688 431.230469 620.277344 C 430.449219 621.210938 429.808594 622.027344 429.257812 622.730469 C 426.550781 626.175781 425.988281 626.890625 417.273438 628.6875 C 414.796875 629.203125 408.210938 630.558594 408.113281 635.191406 C 408.011719 640.246094 415.898438 642.367188 416.796875 642.589844 C 419.925781 643.375 422.945312 643.769531 425.820312 643.769531 C 432.824219 643.769531 438.980469 641.464844 443.898438 637.003906 C 443.746094 655.019531 444.5 672.785156 446.652344 678.195312 C 448.417969 682.625 452.738281 693.445312 466.382812 693.445312 C 468.382812 693.445312 470.585938 693.214844 473.007812 692.691406 C 487.246094 689.632812 493.425781 683.328125 495.824219 669.417969 C 497.097656 661.988281 499.296875 644.230469 500.328125 634.714844 C 502.511719 635.390625 505.316406 635.707031 508.351562 635.707031 C 514.679688 635.707031 521.980469 634.359375 526.554688 632.222656 C 531.703125 629.835938 540.980469 623.953125 539.296875 618.851562 Z M 505.402344 554.511719 C 505.347656 557.324219 504.960938 559.875 504.554688 562.539062 C 504.117188 565.402344 503.664062 568.367188 503.546875 571.960938 C 503.433594 575.457031 503.871094 579.09375 504.292969 582.617188 C 505.140625 589.722656 506.015625 597.035156 502.632812 604.257812 C 502.101562 603.316406 501.59375 602.300781 501.132812 601.167969 C 500.710938 600.140625 499.796875 598.5 498.535156 596.226562 C 493.617188 587.386719 482.101562 566.671875 487.996094 558.222656 C 489.75 555.707031 494.207031 553.121094 505.402344 554.511719 Z M 491.832031 506.894531 C 508.238281 507.257812 521.203125 513.410156 530.390625 525.175781 C 537.429688 534.203125 529.675781 575.269531 507.222656 610.699219 C 507 610.414062 506.777344 610.128906 506.539062 609.835938 C 506.445312 609.71875 506.355469 609.597656 506.253906 609.480469 C 512.058594 599.871094 510.925781 590.367188 509.914062 581.9375 C 509.496094 578.476562 509.105469 575.207031 509.207031 572.140625 C 509.3125 568.886719 509.742188 566.097656 510.152344 563.402344 C 510.664062 560.078125 511.179688 556.640625 511.042969 552.585938 C 511.148438 552.160156 511.1875 551.65625 511.132812 551.058594 C 510.765625 547.171875 506.339844 535.535156 497.3125 525.003906 C 492.378906 519.242188 485.183594 512.796875 475.351562 508.449219 C 479.582031 507.570312 485.359375 506.75 491.832031 506.894531 Z M 400.070312 630.988281 C 395.535156 636.453125 392.402344 635.40625 391.375 635.066406 C 384.660156 632.816406 376.875 618.597656 370.011719 596.046875 C 364.070312 576.535156 360.597656 556.917969 360.324219 551.414062 C 359.457031 534.015625 363.664062 521.886719 372.828125 515.371094 C 387.746094 504.765625 412.265625 511.113281 422.121094 514.332031 C 421.976562 514.472656 421.832031 514.605469 421.691406 514.746094 C 405.519531 531.117188 405.90625 559.09375 405.945312 560.800781 C 405.941406 561.460938 406 562.394531 406.074219 563.679688 C 406.351562 568.382812 406.871094 577.144531 405.488281 587.0625 C 404.203125 596.269531 407.035156 605.296875 413.257812 611.800781 C 413.902344 612.476562 414.574219 613.109375 415.269531 613.703125 C 412.5 616.679688 406.480469 623.261719 400.070312 630.988281 Z M 417.347656 607.871094 C 412.332031 602.628906 410.054688 595.324219 411.097656 587.847656 C 412.558594 577.367188 412.019531 568.246094 411.730469 563.34375 C 411.6875 562.65625 411.652344 562.054688 411.632812 561.582031 C 413.992188 559.484375 424.941406 553.601562 432.742188 555.394531 C 436.308594 556.214844 438.476562 558.644531 439.382812 562.828125 C 444.050781 584.488281 440 593.511719 436.746094 600.773438 C 436.070312 602.257812 435.441406 603.675781 434.894531 605.132812 L 434.480469 606.265625 C 433.410156 609.125 432.429688 611.777344 431.8125 614.296875 C 426.476562 614.28125 421.292969 612 417.347656 607.871094 Z M 418.167969 637.085938 C 416.609375 636.691406 415.210938 636.015625 414.386719 635.453125 C 415.074219 635.128906 416.296875 634.6875 418.414062 634.25 C 428.667969 632.136719 430.253906 630.644531 433.703125 626.242188 C 434.503906 625.234375 435.394531 624.085938 436.640625 622.699219 L 436.640625 622.691406 C 438.5 620.609375 439.347656 620.964844 440.882812 621.601562 C 442.128906 622.121094 443.34375 623.683594 443.835938 625.410156 C 444.066406 626.21875 444.328125 627.769531 443.472656 628.96875 C 436.25 639.105469 425.726562 638.980469 418.167969 637.085938 Z M 471.820312 687.140625 C 459.277344 689.832031 454.835938 683.417969 451.914062 676.082031 C 450.023438 671.351562 449.09375 649.996094 449.753906 626.410156 C 449.761719 626.105469 449.714844 625.796875 449.628906 625.511719 C 449.554688 624.964844 449.4375 624.410156 449.277344 623.84375 C 448.300781 620.417969 445.917969 617.550781 443.050781 616.355469 C 441.914062 615.882812 439.824219 615.011719 437.316406 615.660156 C 437.855469 613.449219 438.777344 610.953125 439.785156 608.253906 L 440.207031 607.113281 C 440.683594 605.835938 441.273438 604.5 441.914062 603.097656 C 445.316406 595.507812 449.984375 585.113281 444.917969 561.628906 C 443.019531 552.832031 436.6875 548.535156 427.085938 549.535156 C 421.324219 550.132812 416.058594 552.460938 413.429688 553.796875 C 412.863281 554.082031 412.347656 554.359375 411.867188 554.628906 C 412.597656 545.769531 415.371094 529.203125 425.734375 518.726562 C 432.257812 512.128906 440.945312 508.867188 451.535156 509.042969 C 472.398438 509.386719 485.773438 520.121094 493.320312 529.066406 C 499.832031 536.773438 503.351562 544.539062 504.757812 548.726562 C 494.191406 547.648438 486.996094 549.742188 483.351562 554.964844 C 475.417969 566.332031 487.6875 588.394531 493.582031 598.992188 C 494.667969 600.933594 495.597656 602.613281 495.898438 603.332031 C 497.8125 607.992188 500.300781 611.105469 502.113281 613.386719 C 502.667969 614.082031 503.214844 614.757812 503.621094 615.34375 C 500.417969 616.269531 494.667969 618.414062 495.191406 629.101562 C 494.765625 634.464844 491.761719 659.574219 490.230469 668.453125 C 488.21875 680.175781 483.914062 684.535156 471.820312 687.140625 Z M 524.167969 627.074219 C 520.894531 628.601562 515.414062 629.742188 510.210938 629.988281 C 504.460938 630.257812 501.53125 629.339844 500.847656 628.777344 C 500.523438 622.121094 502.992188 621.417969 505.613281 620.6875 C 506.019531 620.570312 506.425781 620.453125 506.8125 620.324219 C 507.050781 620.515625 507.320312 620.707031 507.601562 620.902344 C 512.222656 623.960938 520.472656 624.292969 532.101562 621.878906 C 532.148438 621.871094 532.191406 621.863281 532.230469 621.855469 C 530.664062 623.328125 527.980469 625.300781 524.167969 627.074219 Z M 524.167969 627.074219 " fill-opacity="1" fill-rule="nonzero"/><g clip-path="url(#dc32129ea1)"><path fill="#f03c2e" d="M 271.351562 586.875 L 188.507812 504.03125 C 187.941406 503.464844 187.324219 502.957031 186.65625 502.511719 C 185.988281 502.066406 185.285156 501.691406 184.542969 501.382812 C 183.804688 501.074219 183.039062 500.84375 182.253906 500.6875 C 181.464844 500.53125 180.671875 500.453125 179.867188 500.453125 C 179.066406 500.453125 178.273438 500.53125 177.484375 500.6875 C 176.699219 500.84375 175.933594 501.074219 175.191406 501.382812 C 174.453125 501.691406 173.746094 502.066406 173.082031 502.511719 C 172.414062 502.957031 171.796875 503.464844 171.230469 504.03125 L 154.03125 521.226562 L 175.855469 543.050781 C 180.929688 541.269531 186.742188 542.484375 190.785156 546.53125 C 191.746094 547.496094 192.558594 548.574219 193.21875 549.765625 C 193.875 550.957031 194.359375 552.21875 194.664062 553.546875 C 194.96875 554.875 195.082031 556.21875 195.011719 557.578125 C 194.9375 558.9375 194.675781 560.261719 194.230469 561.550781 L 215.261719 582.582031 C 220.351562 580.828125 226.222656 581.960938 230.28125 586.035156 C 230.957031 586.710938 231.5625 587.445312 232.09375 588.238281 C 232.625 589.03125 233.070312 589.871094 233.4375 590.753906 C 233.804688 591.636719 234.078125 592.542969 234.265625 593.480469 C 234.453125 594.417969 234.546875 595.363281 234.546875 596.320312 C 234.546875 597.273438 234.453125 598.222656 234.265625 599.15625 C 234.082031 600.09375 233.804688 601.003906 233.4375 601.886719 C 233.074219 602.769531 232.625 603.609375 232.09375 604.402344 C 231.5625 605.195312 230.960938 605.929688 230.285156 606.605469 C 229.609375 607.28125 228.875 607.882812 228.078125 608.414062 C 227.285156 608.945312 226.445312 609.394531 225.566406 609.757812 C 224.683594 610.125 223.773438 610.398438 222.835938 610.585938 C 221.898438 610.773438 220.953125 610.863281 219.996094 610.863281 C 219.042969 610.863281 218.097656 610.769531 217.160156 610.582031 C 216.222656 610.398438 215.3125 610.121094 214.429688 609.753906 C 213.546875 609.386719 212.710938 608.941406 211.917969 608.410156 C 211.121094 607.878906 210.386719 607.273438 209.710938 606.597656 C 205.445312 602.328125 204.386719 596.042969 206.546875 590.785156 L 186.929688 571.167969 L 186.929688 622.785156 C 188.363281 623.496094 189.648438 624.414062 190.785156 625.539062 C 191.460938 626.210938 192.0625 626.945312 192.59375 627.742188 C 193.125 628.535156 193.570312 629.371094 193.9375 630.253906 C 194.300781 631.136719 194.578125 632.046875 194.765625 632.984375 C 194.949219 633.917969 195.042969 634.863281 195.042969 635.820312 C 195.042969 636.773438 194.949219 637.71875 194.765625 638.65625 C 194.578125 639.59375 194.300781 640.503906 193.9375 641.382812 C 193.570312 642.265625 193.125 643.105469 192.59375 643.898438 C 192.0625 644.691406 191.460938 645.425781 190.785156 646.101562 C 190.109375 646.777344 189.375 647.378906 188.582031 647.910156 C 187.789062 648.441406 186.949219 648.886719 186.066406 649.253906 C 185.1875 649.617188 184.277344 649.894531 183.339844 650.082031 C 182.402344 650.265625 181.457031 650.359375 180.503906 650.359375 C 179.546875 650.359375 178.601562 650.265625 177.667969 650.082031 C 176.730469 649.894531 175.820312 649.617188 174.9375 649.253906 C 174.054688 648.886719 173.21875 648.441406 172.425781 647.910156 C 171.628906 647.378906 170.894531 646.777344 170.222656 646.101562 C 169.546875 645.425781 168.941406 644.691406 168.410156 643.898438 C 167.878906 643.105469 167.429688 642.265625 167.066406 641.386719 C 166.699219 640.503906 166.421875 639.59375 166.234375 638.65625 C 166.050781 637.71875 165.957031 636.773438 165.957031 635.820312 C 165.957031 634.863281 166.050781 633.917969 166.234375 632.980469 C 166.421875 632.046875 166.699219 631.136719 167.066406 630.253906 C 167.429688 629.371094 167.878906 628.535156 168.410156 627.738281 C 168.941406 626.945312 169.546875 626.210938 170.222656 625.539062 C 171.625 624.136719 173.1875 623.078125 174.984375 622.363281 L 174.984375 570.265625 C 173.25 569.554688 171.625 568.503906 170.222656 567.09375 C 169.714844 566.585938 169.246094 566.046875 168.820312 565.46875 C 168.390625 564.894531 168.007812 564.289062 167.671875 563.65625 C 167.332031 563.023438 167.042969 562.367188 166.800781 561.691406 C 166.5625 561.015625 166.371094 560.328125 166.234375 559.621094 C 166.09375 558.917969 166.007812 558.207031 165.976562 557.492188 C 165.941406 556.773438 165.960938 556.058594 166.035156 555.347656 C 166.105469 554.632812 166.230469 553.925781 166.410156 553.230469 C 166.585938 552.535156 166.8125 551.859375 167.089844 551.195312 L 145.566406 529.683594 L 88.757812 586.429688 C 88.191406 587 87.683594 587.617188 87.238281 588.28125 C 86.792969 588.949219 86.414062 589.65625 86.105469 590.394531 C 85.800781 591.136719 85.566406 591.902344 85.410156 592.6875 C 85.253906 593.476562 85.175781 594.269531 85.175781 595.074219 C 85.175781 595.875 85.253906 596.671875 85.410156 597.457031 C 85.566406 598.246094 85.800781 599.011719 86.105469 599.75 C 86.414062 600.492188 86.792969 601.199219 87.238281 601.863281 C 87.683594 602.53125 88.191406 603.148438 88.757812 603.714844 L 171.609375 686.554688 C 172.175781 687.121094 172.792969 687.628906 173.460938 688.074219 C 174.125 688.519531 174.832031 688.894531 175.570312 689.203125 C 176.3125 689.511719 177.078125 689.742188 177.863281 689.898438 C 178.652344 690.054688 179.445312 690.132812 180.25 690.132812 C 181.050781 690.132812 181.84375 690.054688 182.632812 689.898438 C 183.417969 689.742188 184.183594 689.511719 184.925781 689.203125 C 185.664062 688.894531 186.371094 688.519531 187.035156 688.074219 C 187.703125 687.628906 188.320312 687.121094 188.886719 686.554688 L 271.351562 604.21875 C 271.917969 603.652344 272.425781 603.035156 272.871094 602.367188 C 273.320312 601.703125 273.695312 600.996094 274.003906 600.253906 C 274.3125 599.515625 274.542969 598.75 274.699219 597.960938 C 274.855469 597.175781 274.933594 596.378906 274.933594 595.578125 C 274.933594 594.773438 274.855469 593.980469 274.699219 593.191406 C 274.542969 592.40625 274.3125 591.640625 274.003906 590.898438 C 273.695312 590.160156 273.320312 589.453125 272.871094 588.785156 C 272.425781 588.121094 271.917969 587.503906 271.351562 586.933594 " fill-opacity="1" fill-rule="nonzero"/></g><g clip-path="url(#03d7e033fe)"><path fill="#0277bd" d="M 521.316406 269.328125 L 348.105469 269.328125 L 363.390625 443.132812 L 434.710938 463.578125 L 506.03125 443.132812 Z M 521.316406 269.328125 " fill-opacity="1" fill-rule="nonzero"/></g><path fill="#039be5" d="M 434.710938 284.664062 L 434.710938 447.730469 L 491.769531 431.375 L 504.503906 284.664062 Z M 434.710938 284.664062 " fill-opacity="1" fill-rule="nonzero"/><path fill="#ffffff" d="M 481.070312 310.222656 L 434.710938 310.222656 L 434.710938 330.671875 L 459.675781 330.671875 L 458.144531 351.117188 L 434.710938 351.117188 L 434.710938 371.566406 L 457.125 371.566406 L 455.597656 394.570312 L 434.710938 401.726562 L 434.710938 423.195312 L 474.957031 409.902344 L 478.523438 351.117188 Z M 481.070312 310.222656 " fill-opacity="1" fill-rule="nonzero"/><path fill="#eeeeee" d="M 434.710938 310.222656 L 434.710938 330.671875 L 389.371094 330.671875 L 387.84375 310.222656 Z M 411.277344 351.117188 L 412.296875 371.566406 L 434.710938 371.566406 L 434.710938 351.117188 Z M 413.316406 381.789062 L 392.9375 381.789062 L 394.464844 409.902344 L 434.710938 423.195312 L 434.710938 401.726562 L 413.824219 394.570312 Z M 413.316406 381.789062 " fill-opacity="1" fill-rule="nonzero"/></svg>